<svg
      xmlns="http://www.w3.org/2000/svg"
      width="128px"
      height="39.5px"
      viewBox="0 0 313.355 96.805">
      <g
        id="greenify_logo_horizontal"
        data-name="greenify logo horizontal"
        transform="translate(-42.224 -64.405)">
        <g id="Group_6" data-name="Group 6">
          <path
            id="Path_30"
            data-name="Path 30"
            d="M56.71,126.54a2.349,2.349,0,0,0-3.03,3.59l19.64,16.59v9.69a28.516,28.516,0,0,1-19.72-9.42c-11.36-13.24-6.09-32.26.34-45.88,3.29-6.97,8.92-15.01,13.95-21.41a2.351,2.351,0,0,0-3.7-2.9c-5.18,6.59-11.03,14.94-14.5,22.3-10.07,21.34-9.95,38.96.34,50.95,6,6.99,15.25,11.06,25.37,11.16h.02a2.677,2.677,0,0,0,2.59-2.53V145.64a2.324,2.324,0,0,0-.83-1.79Z"
            fill="#4d822b"
          />
          <path
            id="Path_31"
            data-name="Path 31"
            d="M92.6,111.76,75.7,125.43,58.64,111.38a2.351,2.351,0,1,0-2.99,3.63c.26.22,18.4,15.17,18.68,15.37a2.335,2.335,0,0,0,2.83-.08l18.4-14.88a2.354,2.354,0,0,0-2.96-3.66Z"
            fill="#4d822b"
          />
          <path
            id="Path_32"
            data-name="Path 32"
            d="M63.52,98.63a2.346,2.346,0,0,0-3.08,3.54l5.61,4.87a2.346,2.346,0,1,0,3.08-3.54Z"
            fill="#4d822b"
          />
          <path
            id="Path_33"
            data-name="Path 33"
            d="M82.2,140.93a2.35,2.35,0,0,0,3.31.33l13.46-10.98a2.352,2.352,0,0,0-2.98-3.64L82.53,137.62A2.361,2.361,0,0,0,82.2,140.93Z"
            fill="#4d822b"
          />
          <path
            id="Path_34"
            data-name="Path 34"
            d="M101.68,99.1C95.32,85.62,80.75,69.24,77.5,65.27A2.348,2.348,0,0,0,73.35,67c-.06.36-.04-2.24-.04,44.52a2.471,2.471,0,0,0,4,1.84l13.92-10.99a2.35,2.35,0,0,0-2.91-3.69l-10.31,8.14V73.18c5.61,6.72,14.85,18.23,19.42,27.93,6.43,13.63,11.7,32.65.34,45.88-3.6,4.2-7.51,7.17-13.28,8.59a2.348,2.348,0,1,0,1.12,4.56c6.72-1.66,11.47-5.15,15.71-10.09C111.63,138.06,111.75,120.44,101.68,99.1Z"
            fill="#4d822b"
          />
        </g>
        <path
          id="Path_35"
          data-name="Path 35"
          d="M26.993-18.279h8.764V-3.756A22.851,22.851,0,0,1,28.846-.451,27.5,27.5,0,0,1,21.034.7a20.894,20.894,0,0,1-9.916-2.329A17.372,17.372,0,0,1,4.207-8.113a17.887,17.887,0,0,1-2.5-9.415,17.887,17.887,0,0,1,2.5-9.415,17.29,17.29,0,0,1,6.961-6.485,21.409,21.409,0,0,1,10.066-2.329A22.423,22.423,0,0,1,30.048-34.1a16.991,16.991,0,0,1,6.51,4.758l-6.31,5.709a11.123,11.123,0,0,0-8.514-3.906,9.867,9.867,0,0,0-7.262,2.729,9.8,9.8,0,0,0-2.754,7.287,10.585,10.585,0,0,0,1.252,5.183,8.978,8.978,0,0,0,3.506,3.556,10.279,10.279,0,0,0,5.158,1.277,12.668,12.668,0,0,0,5.359-1.152Zm23.688-5.609a8.856,8.856,0,0,1,3.781-2.779,14.344,14.344,0,0,1,5.334-.926v8.564a19.453,19.453,0,0,0-2.153-.15,6.636,6.636,0,0,0-4.783,1.653,6.7,6.7,0,0,0-1.728,5.058V0H41.616V-27.143h9.064ZM91.2-13.522q0,.1-.15,2.354H71.314a5.523,5.523,0,0,0,2.329,3.23,7.775,7.775,0,0,0,4.332,1.127,9.378,9.378,0,0,0,3.38-.551,9.974,9.974,0,0,0,2.88-1.8l5.008,5.208Q85.286.451,77.674.451a18.469,18.469,0,0,1-8.363-1.8A13.465,13.465,0,0,1,63.727-6.36a13.543,13.543,0,0,1-1.978-7.262,13.586,13.586,0,0,1,1.928-7.186,13.471,13.471,0,0,1,5.334-4.983,16.121,16.121,0,0,1,7.662-1.8,16.029,16.029,0,0,1,7.362,1.678,12.763,12.763,0,0,1,5.233,4.858A14.258,14.258,0,0,1,91.2-13.522ZM76.723-20.833a5.5,5.5,0,0,0-3.681,1.252,5.653,5.653,0,0,0-1.878,3.405H82.281A5.653,5.653,0,0,0,80.4-19.581,5.5,5.5,0,0,0,76.723-20.833Zm46.624,7.312q0,.1-.15,2.354H103.465a5.523,5.523,0,0,0,2.329,3.23,7.775,7.775,0,0,0,4.332,1.127,9.378,9.378,0,0,0,3.38-.551,9.974,9.974,0,0,0,2.88-1.8l5.008,5.208Q117.438.451,109.825.451a18.469,18.469,0,0,1-8.363-1.8A13.465,13.465,0,0,1,95.878-6.36,13.543,13.543,0,0,1,93.9-13.622a13.586,13.586,0,0,1,1.928-7.186,13.471,13.471,0,0,1,5.334-4.983,16.121,16.121,0,0,1,7.662-1.8,16.029,16.029,0,0,1,7.362,1.678,12.763,12.763,0,0,1,5.233,4.858A14.258,14.258,0,0,1,123.347-13.522Zm-14.473-7.312a5.5,5.5,0,0,0-3.681,1.252,5.653,5.653,0,0,0-1.878,3.405h11.118a5.653,5.653,0,0,0-1.878-3.405A5.5,5.5,0,0,0,108.874-20.833Zm36.558-6.761a11.155,11.155,0,0,1,8.138,3q3.08,3,3.08,9.064V0h-9.515V-13.972q0-5.559-4.457-5.559a5.09,5.09,0,0,0-3.931,1.6,6.878,6.878,0,0,0-1.477,4.808V0h-9.515V-27.143h9.064v2.955a10.786,10.786,0,0,1,3.806-2.529A12.894,12.894,0,0,1,145.432-27.594Zm17.177.451h9.515V0H162.61Zm4.758-3a6.024,6.024,0,0,1-4.207-1.452,4.669,4.669,0,0,1-1.6-3.606,4.669,4.669,0,0,1,1.6-3.606,6.024,6.024,0,0,1,4.207-1.452,6.228,6.228,0,0,1,4.207,1.377,4.445,4.445,0,0,1,1.6,3.531,4.857,4.857,0,0,1-1.6,3.731A5.961,5.961,0,0,1,167.367-30.148Zm21.284,4.006h6.46v7.111H188.9V0h-9.515V-19.03H175.43v-7.111h3.956v-.7a10.474,10.474,0,0,1,2.98-7.863q2.98-2.9,8.338-2.9a17.341,17.341,0,0,1,3.506.351,8.342,8.342,0,0,1,2.8,1.052L194.661-29.5a5.693,5.693,0,0,0-2.855-.8,3,3,0,0,0-2.329.9,3.8,3.8,0,0,0-.826,2.654Zm39.062-1L216,1.1q-2.053,5.008-5.008,7.036a12.436,12.436,0,0,1-7.212,2.028,14.552,14.552,0,0,1-4.332-.676,10.437,10.437,0,0,1-3.531-1.778l3.305-6.661a5.754,5.754,0,0,0,1.928,1.177,6.4,6.4,0,0,0,2.279.426,4.121,4.121,0,0,0,2.229-.551A4.229,4.229,0,0,0,207.131.351L195.512-27.143h9.766l6.661,16.576,6.711-16.576Z"
          transform="translate(127.866 127.381)"
          fill="#0e182a"
        />
      </g>
    </svg>